<svg version="1.1" xmlns="http://www.w3.org/2000/svg" viewBox="0 0 1440 1440">
<style>
  .fg { fill: #2e7d32; }
  .bg { fill: #ffffff; }
  @media (prefers-color-scheme: dark) {
    .fg { fill: #66bb6a; }
    .bg { fill: #0a0a0a; }
  }
</style>
<path class="fg" d="M838.000000,1441.000000 C558.666687,1441.000000 279.833435,1441.000000 1.000112,1441.000000 C1.000075,961.000122 1.000075,481.000275 1.000037,1.000305 C480.999786,1.000204 960.999573,1.000204 1440.999512,1.000102 C1440.999756,480.999664 1440.999756,960.999329 1440.999878,1440.999512 C1240.166626,1441.000000 1039.333374,1441.000000 838.000000,1441.000000 M65.000000,1180.500000 C65.000000,1245.922363 65.000000,1311.344604 65.000000,1376.747314 C502.609924,1376.747314 939.660889,1376.747314 1376.601685,1376.747314 C1376.601685,1053.688477 1376.601685,730.882202 1376.601685,408.163849 C1215.985352,431.863342 1055.746094,455.507172 895.432007,479.162079 C860.170471,617.767700 824.918945,756.333740 789.722778,894.682434 C713.633911,894.682434 637.895508,894.682434 561.953125,894.682434 C561.953125,772.400269 561.953125,650.435486 561.953125,528.667175 C559.351868,528.841614 556.924988,528.843872 554.548584,529.191345 C543.956116,530.740295 533.375427,532.370544 522.795837,534.005920 C515.105408,535.194641 507.431976,536.495422 499.735382,537.641357 C489.615143,539.148071 479.480225,540.556519 469.350433,541.998779 C459.379578,543.418457 449.401154,544.786377 439.437195,546.252869 C429.005341,547.788269 418.590698,549.440613 408.161194,550.992249 C398.203583,552.473816 388.232880,553.867188 378.274628,555.344421 C368.003601,556.867981 357.747101,558.490723 347.472198,559.987183 C337.503326,561.439087 327.510529,562.727295 317.544006,564.194519 C307.114838,565.729919 296.710815,567.435852 286.283936,568.987549 C276.323822,570.469849 266.340881,571.799194 256.381927,573.288757 C246.278259,574.799988 236.203400,576.505737 226.094223,577.977234 C215.959412,579.452576 205.781250,580.632751 195.652176,582.143982 C183.306808,583.985718 171.010849,586.161255 158.660278,587.964722 C146.111206,589.797180 133.505783,591.242798 120.953957,593.057678 C105.703232,595.262878 90.514847,597.923523 75.237900,599.914429 C65.048141,601.242371 64.999992,600.872986 65.000000,611.038330 C65.000008,800.525574 65.000000,990.012756 65.000000,1180.500000 M245.967178,374.546417 C249.339249,373.516418 252.707596,372.474030 256.083984,371.458344 C281.264374,363.883942 306.465302,356.377228 331.622955,348.728180 C362.914948,339.214111 394.148010,329.505859 425.450287,320.026001 C455.836029,310.823700 486.290222,301.847717 516.688110,292.685150 C530.349060,288.567444 543.887634,284.031281 557.613892,280.152405 C560.940369,279.212433 562.071228,278.206055 562.066772,274.769196 C561.977417,206.111115 562.001648,137.452866 561.987122,68.794662 C561.986877,67.541359 561.793945,66.288086 561.716370,65.344177 C395.886200,65.344177 230.495239,65.344177 65.294922,65.344177 C65.294922,186.739792 65.294922,307.791107 65.294922,428.907990 C67.306068,428.453583 69.053520,428.169220 70.733932,427.662567 C96.062340,420.025299 121.393761,412.397675 146.700378,404.688690 C174.149460,396.327057 201.566650,387.860687 229.014359,379.494537 C234.385559,377.857391 239.832642,376.469238 245.967178,374.546417 M988.037109,113.720940 C985.015137,126.411217 981.993164,139.101486 978.778503,152.600952 C1075.082886,123.445122 1170.383789,94.593124 1265.684570,65.741127 C1265.631348,65.494087 1265.578003,65.247055 1265.524658,65.000015 C1264.564819,65.000015 1263.604858,65.000015 1262.645020,65.000015 C1176.869995,65.000008 1091.094971,65.000000 1005.319946,65.000031 C1004.653748,65.000031 1003.831238,64.750526 1003.352051,65.050011 C1002.152588,65.799789 1000.404114,66.611557 1000.108704,67.725426 C996.115112,82.785065 992.332214,97.900558 988.037109,113.720940 z"/>
<path class="bg" d="M65.000000,1180.000000 C65.000000,990.012756 65.000008,800.525574 65.000000,611.038330 C64.999992,600.872986 65.048141,601.242371 75.237900,599.914429 C90.514847,597.923523 105.703232,595.262878 120.953957,593.057678 C133.505783,591.242798 146.111206,589.797180 158.660278,587.964722 C171.010849,586.161255 183.306808,583.985718 195.652176,582.143982 C205.781250,580.632751 215.959412,579.452576 226.094223,577.977234 C236.203400,576.505737 246.278259,574.799988 256.381927,573.288757 C266.340881,571.799194 276.323822,570.469849 286.283936,568.987549 C296.710815,567.435852 307.114838,565.729919 317.544006,564.194519 C327.510529,562.727295 337.503326,561.439087 347.472198,559.987183 C357.747101,558.490723 368.003601,556.867981 378.274628,555.344421 C388.232880,553.867188 398.203583,552.473816 408.161194,550.992249 C418.590698,549.440613 429.005341,547.788269 439.437195,546.252869 C449.401154,544.786377 459.379578,543.418457 469.350433,541.998779 C479.480225,540.556519 489.615143,539.148071 499.735382,537.641357 C507.431976,536.495422 515.105408,535.194641 522.795837,534.005920 C533.375427,532.370544 543.956116,530.740295 554.548584,529.191345 C556.924988,528.843872 559.351868,528.841614 561.953125,528.667175 C561.953125,650.435486 561.953125,772.400269 561.953125,894.682434 C637.895508,894.682434 713.633911,894.682434 789.722778,894.682434 C824.918945,756.333740 860.170471,617.767700 895.432007,479.162079 C1055.746094,455.507172 1215.985352,431.863342 1376.601685,408.163849 C1376.601685,730.882202 1376.601685,1053.688477 1376.601685,1376.747314 C939.660889,1376.747314 502.609924,1376.747314 65.000000,1376.747314 C65.000000,1311.344604 65.000000,1245.922363 65.000000,1180.000000 M1088.489746,1304.000000 C1092.593872,1304.000000 1096.697876,1304.000000 1101.527100,1304.000000 C1101.527100,1237.410645 1101.527100,1171.394897 1101.527100,1105.379028 C1102.162598,1105.318848 1102.798096,1105.258545 1103.433594,1105.198364 C1113.313232,1171.402100 1123.192993,1237.605957 1133.066406,1303.767700 C1151.931763,1303.767700 1170.369141,1303.767700 1188.833618,1303.767700 C1198.466064,1234.139648 1208.067505,1164.735229 1217.669067,1095.330933 C1218.170410,1095.385132 1218.671753,1095.439453 1219.173096,1095.493652 C1219.173096,1164.912598 1219.173096,1234.331421 1219.173096,1303.727539 C1245.279663,1303.727539 1271.016602,1303.727539 1296.735596,1303.727539 C1296.735596,1193.391479 1296.735596,1083.327881 1296.735596,973.132446 C1258.183594,973.132446 1219.895752,973.132446 1180.952759,973.132446 C1174.523315,1021.736328 1168.089478,1070.373779 1161.655640,1119.011108 C1161.249268,1119.008667 1160.843018,1119.006104 1160.436768,1119.003540 C1153.272217,1070.382568 1146.107544,1021.761658 1138.965332,973.292236 C1100.019287,973.292236 1061.613159,973.292236 1023.284180,973.292236 C1023.284180,1083.648315 1023.284180,1193.711792 1023.284180,1304.000000 C1044.875732,1304.000000 1066.183960,1304.000000 1088.489746,1304.000000 M653.500427,1091.001221 C653.052368,1092.026123 652.604309,1093.051025 652.156311,1094.075806 C651.817078,1094.004517 651.477905,1093.933228 651.138672,1093.861938 C651.138672,1053.702881 651.138672,1013.543701 651.138672,973.199890 C621.194336,973.199890 591.794006,973.199890 562.354248,973.199890 C562.354248,1083.572021 562.354248,1193.743896 562.354248,1303.648438 C592.110840,1303.648438 621.512634,1303.648438 651.306519,1303.648438 C651.306519,1259.031738 651.306519,1214.765991 651.306519,1170.500244 C651.658569,1170.444092 652.010620,1170.388062 652.362732,1170.332031 C663.672241,1214.890503 674.981750,1259.448853 686.256531,1303.870605 C717.376526,1303.870605 747.988953,1303.870605 778.692139,1303.870605 C777.048340,1297.996460 775.577820,1292.225586 773.819214,1286.543823 C764.624878,1256.838745 755.333313,1227.163696 746.123047,1197.463623 C738.811096,1173.884766 731.499268,1150.305298 724.392822,1126.664429 C723.629578,1124.125244 723.494263,1120.922729 724.326355,1118.451782 C732.610901,1093.851074 741.231140,1069.363770 749.614075,1044.795898 C757.742188,1020.974915 765.703491,997.097107 773.759216,973.181152 C745.459412,973.181152 717.347168,973.181152 689.108215,973.181152 C689.060547,974.165771 689.189392,975.027649 688.957886,975.778442 C679.465027,1006.567383 669.917053,1037.339355 660.435120,1068.131714 C658.170532,1075.485962 656.113037,1082.904053 653.500427,1091.001221 M321.000000,1169.500000 C321.333282,1181.917236 321.287323,1194.359375 322.102661,1206.744873 C322.981659,1220.097778 323.997437,1233.508179 326.175568,1246.691650 C328.716003,1262.068481 335.322510,1275.560425 347.496277,1286.148071 C366.273590,1302.478882 388.637909,1308.524658 412.690521,1309.917725 C421.497009,1310.427856 430.385529,1310.433716 439.185608,1309.871216 C447.101562,1309.365234 455.155853,1308.542725 462.783600,1306.496948 C481.994080,1301.344604 498.646820,1291.690186 512.006592,1276.588623 C521.723328,1265.604980 526.250122,1252.600342 527.949280,1238.409912 C528.902893,1230.445923 529.754761,1222.429321 529.925781,1214.420776 C530.239502,1199.734863 530.015198,1185.037476 530.015198,1170.226807 C501.142517,1170.226807 471.740845,1170.226807 442.000000,1170.226807 C442.000000,1172.910889 442.065186,1175.375244 441.989777,1177.835327 C441.341064,1198.991333 440.912384,1220.158569 439.878357,1241.296021 C439.470673,1249.629883 434.870575,1253.414429 426.761841,1253.999268 C420.316833,1254.464111 414.922150,1250.733154 413.042816,1243.811035 C411.907928,1239.630981 411.092896,1235.213501 411.084106,1230.900879 C410.960419,1170.078003 410.978882,1109.254639 411.043793,1048.431519 C411.048523,1044.017456 411.282684,1039.524170 412.152039,1035.217529 C412.761658,1032.197632 414.215240,1029.129517 416.032928,1026.619507 C419.428802,1021.930359 424.787598,1023.023804 429.626831,1023.025146 C434.697021,1023.026550 439.519226,1027.194458 439.952728,1032.241089 C440.780762,1041.881104 441.734680,1051.537354 441.911743,1061.200073 C442.226135,1078.358154 441.994537,1095.526001 442.010162,1112.689819 C442.011444,1114.109375 442.155670,1115.529053 442.216858,1116.645020 C472.115326,1116.645020 501.518433,1116.645020 531.041626,1116.645020 C530.566528,1087.926147 532.350952,1059.519409 527.125427,1031.307983 C522.757263,1007.725769 509.520538,991.391479 489.037140,979.950134 C474.078217,971.594666 457.815857,967.264526 441.086426,966.320190 C426.179077,965.478638 410.868622,965.877136 396.185699,968.373291 C375.253387,971.931946 356.358948,980.799072 341.965912,997.453857 C333.919434,1006.764893 327.217194,1016.995178 325.225433,1029.090942 C322.921051,1043.085205 321.434418,1057.346069 321.181824,1071.519531 C320.605865,1103.837036 321.000000,1136.172119 321.000000,1169.500000 M872.000000,1104.500000 C872.000000,1086.000977 871.845764,1067.499756 872.092651,1049.004028 C872.168213,1043.347046 873.056946,1037.650879 874.102539,1032.071655 C875.058350,1026.971436 879.875244,1023.237854 884.766541,1023.000122 C894.932861,1022.505859 899.049011,1024.227295 900.846863,1031.045166 C902.200806,1036.179932 902.854065,1041.632812 902.907837,1046.953491 C903.128418,1068.783691 902.996033,1090.617432 903.008850,1112.449951 C903.009644,1113.889893 903.137695,1115.329712 903.204407,1116.725586 C932.947876,1116.725586 962.352478,1116.725586 992.119934,1116.725586 C991.196472,1087.622559 993.956604,1058.704712 988.125061,1030.030151 C984.342957,1011.432922 975.085266,997.009827 959.785156,985.906006 C942.318237,973.229675 922.388733,967.671143 901.471252,966.293518 C887.911011,965.400391 874.042847,966.405334 860.528809,968.193298 C835.893127,971.452698 814.976257,982.187500 799.286011,1002.143188 C789.835388,1014.163025 785.184448,1028.255981 783.312195,1042.855591 C781.529663,1056.755127 782.007629,1070.987549 782.063232,1085.071289 C782.209595,1122.156494 782.833130,1159.239990 782.923828,1196.325073 C782.964050,1212.792358 784.036499,1229.093140 786.957947,1245.310669 C791.133362,1268.488770 803.213928,1285.877075 824.054993,1296.988159 C837.017334,1303.898804 850.973633,1307.190918 865.501648,1309.171265 C881.766663,1311.388550 897.955933,1311.386841 913.999207,1308.809448 C931.010132,1306.076782 946.696411,1299.427734 960.489685,1288.850464 C973.746155,1278.684937 983.848267,1266.216797 986.913025,1249.351196 C988.770325,1239.130371 990.421570,1228.767700 990.843323,1218.414795 C991.495056,1202.414185 991.015198,1186.367554 991.015198,1170.232910 C962.135498,1170.232910 932.731201,1170.232910 903.000000,1170.232910 C903.000000,1173.258667 903.075012,1176.058594 902.988037,1178.853394 C902.329895,1200.009399 904.778015,1221.272217 900.966309,1242.314697 C899.671143,1249.464355 896.717468,1253.047241 888.257690,1253.919189 C881.161743,1254.650269 875.230164,1250.224731 874.088013,1243.435547 C873.035950,1237.182007 872.118042,1230.815674 872.089722,1224.494873 C871.912170,1184.830566 872.000000,1145.165039 872.000000,1104.500000 M247.500000,973.000000 C213.407196,973.000000 179.314392,973.000000 145.274139,973.000000 C145.274139,1083.631104 145.274139,1193.693237 145.274139,1303.728271 C196.616150,1303.728271 247.683563,1303.728271 298.726807,1303.728271 C298.726807,1281.385132 298.726807,1259.314941 298.726807,1236.848755 C277.050201,1236.848755 255.643723,1236.848755 234.276001,1236.848755 C234.276001,1212.712646 234.276001,1188.975952 234.276001,1164.842773 C252.955795,1164.842773 271.363037,1164.842773 289.720459,1164.842773 C289.720459,1143.372437 289.720459,1122.302002 289.720459,1100.835693 C271.036987,1100.835693 252.629745,1100.835693 234.283234,1100.835693 C234.283234,1080.365112 234.283234,1060.294556 234.283234,1039.828491 C253.970367,1039.828491 273.377289,1039.828491 292.713501,1039.828491 C292.713501,1017.358337 292.713501,995.287903 292.713501,973.000000 C277.785309,973.000000 263.142670,973.000000 247.500000,973.000000 z"/>
<path class="bg" d="M245.605957,374.756348 C239.832642,376.469238 234.385559,377.857391 229.014359,379.494537 C201.566650,387.860687 174.149460,396.327057 146.700378,404.688690 C121.393761,412.397675 96.062340,420.025299 70.733932,427.662567 C69.053520,428.169220 67.306068,428.453583 65.294922,428.907990 C65.294922,307.791107 65.294922,186.739792 65.294922,65.344177 C230.495239,65.344177 395.886200,65.344177 561.716370,65.344177 C561.793945,66.288086 561.986877,67.541359 561.987122,68.794662 C562.001648,137.452866 561.977417,206.111115 562.066772,274.769196 C562.071228,278.206055 560.940369,279.212433 557.613892,280.152405 C543.887634,284.031281 530.349060,288.567444 516.688110,292.685150 C486.290222,301.847717 455.836029,310.823700 425.450287,320.026001 C394.148010,329.505859 362.914948,339.214111 331.622955,348.728180 C306.465302,356.377228 281.264374,363.883942 256.083984,371.458344 C252.707596,372.474030 249.339249,373.516418 245.605957,374.756348 z"/>
<path class="bg" d="M988.267151,113.361588 C992.332214,97.900558 996.115112,82.785065 1000.108704,67.725426 C1000.404114,66.611557 1002.152588,65.799789 1003.352051,65.050011 C1003.831238,64.750526 1004.653748,65.000031 1005.319946,65.000031 C1091.094971,65.000000 1176.869995,65.000008 1262.645020,65.000015 C1263.604858,65.000015 1264.564819,65.000015 1265.524658,65.000015 C1265.578003,65.247055 1265.631348,65.494087 1265.684570,65.741127 C1170.383789,94.593124 1075.082886,123.445122 978.778503,152.600952 C981.993164,139.101486 985.015137,126.411217 988.267151,113.361588 z"/>
<path class="fg" d="M1087.990967,1304.000000 C1066.183960,1304.000000 1044.875732,1304.000000 1023.284180,1304.000000 C1023.284180,1193.711792 1023.284180,1083.648315 1023.284180,973.292236 C1061.613159,973.292236 1100.019287,973.292236 1138.965332,973.292236 C1146.107544,1021.761658 1153.272217,1070.382568 1160.436768,1119.003540 C1160.843018,1119.006104 1161.249268,1119.008667 1161.655640,1119.011108 C1168.089478,1070.373779 1174.523315,1021.736328 1180.952759,973.132446 C1219.895752,973.132446 1258.183594,973.132446 1296.735596,973.132446 C1296.735596,1083.327881 1296.735596,1193.391479 1296.735596,1303.727539 C1271.016602,1303.727539 1245.279663,1303.727539 1219.173096,1303.727539 C1219.173096,1234.331421 1219.173096,1164.912598 1219.173096,1095.493652 C1218.671753,1095.439453 1218.170410,1095.385132 1217.669067,1095.330933 C1208.067505,1164.735229 1198.466064,1234.139648 1188.833618,1303.767700 C1170.369141,1303.767700 1151.931763,1303.767700 1133.066406,1303.767700 C1123.192993,1237.605957 1113.313232,1171.402100 1103.433594,1105.198364 C1102.798096,1105.258545 1102.162598,1105.318848 1101.527100,1105.379028 C1101.527100,1171.394897 1101.527100,1237.410645 1101.527100,1304.000000 C1096.697876,1304.000000 1092.593872,1304.000000 1087.990967,1304.000000 z"/>
<path class="fg" d="M653.730347,1090.646973 C656.113037,1082.904053 658.170532,1075.485962 660.435120,1068.131714 C669.917053,1037.339355 679.465027,1006.567383 688.957886,975.778442 C689.189392,975.027649 689.060547,974.165771 689.108215,973.181152 C717.347168,973.181152 745.459412,973.181152 773.759216,973.181152 C765.703491,997.097107 757.742188,1020.974915 749.614075,1044.795898 C741.231140,1069.363770 732.610901,1093.851074 724.326355,1118.451782 C723.494263,1120.922729 723.629578,1124.125244 724.392822,1126.664429 C731.499268,1150.305298 738.811096,1173.884766 746.123047,1197.463623 C755.333313,1227.163696 764.624878,1256.838745 773.819214,1286.543823 C775.577820,1292.225586 777.048340,1297.996460 778.692139,1303.870605 C747.988953,1303.870605 717.376526,1303.870605 686.256531,1303.870605 C674.981750,1259.448853 663.672241,1214.890503 652.362732,1170.332031 C652.010620,1170.388062 651.658569,1170.444092 651.306519,1170.500244 C651.306519,1214.765991 651.306519,1259.031738 651.306519,1303.648438 C621.512634,1303.648438 592.110840,1303.648438 562.354248,1303.648438 C562.354248,1193.743896 562.354248,1083.572021 562.354248,973.199890 C591.794006,973.199890 621.194336,973.199890 651.138672,973.199890 C651.138672,1013.543701 651.138672,1053.702881 651.138672,1093.861938 C651.477905,1093.933228 651.817078,1094.004517 652.156311,1094.075806 C652.604309,1093.051025 653.052368,1092.026123 653.730347,1090.646973 z"/>
<path class="fg" d="M321.000000,1169.000000 C321.000000,1136.172119 320.605865,1103.837036 321.181824,1071.519531 C321.434418,1057.346069 322.921051,1043.085205 325.225433,1029.090942 C327.217194,1016.995178 333.919434,1006.764893 341.965912,997.453857 C356.358948,980.799072 375.253387,971.931946 396.185699,968.373291 C410.868622,965.877136 426.179077,965.478638 441.086426,966.320190 C457.815857,967.264526 474.078217,971.594666 489.037140,979.950134 C509.520538,991.391479 522.757263,1007.725769 527.125427,1031.307983 C532.350952,1059.519409 530.566528,1087.926147 531.041626,1116.645020 C501.518433,1116.645020 472.115326,1116.645020 442.216858,1116.645020 C442.155670,1115.529053 442.011444,1114.109375 442.010162,1112.689819 C441.994537,1095.526001 442.226135,1078.358154 441.911743,1061.200073 C441.734680,1051.537354 440.780762,1041.881104 439.952728,1032.241089 C439.519226,1027.194458 434.697021,1023.026550 429.626831,1023.025146 C424.787598,1023.023804 419.428802,1021.930359 416.032928,1026.619507 C414.215240,1029.129517 412.761658,1032.197632 412.152039,1035.217529 C411.282684,1039.524170 411.048523,1044.017456 411.043793,1048.431519 C410.978882,1109.254639 410.960419,1170.078003 411.084106,1230.900879 C411.092896,1235.213501 411.907928,1239.630981 413.042816,1243.811035 C414.922150,1250.733154 420.316833,1254.464111 426.761841,1253.999268 C434.870575,1253.414429 439.470673,1249.629883 439.878357,1241.296021 C440.912384,1220.158569 441.341064,1198.991333 441.989777,1177.835327 C442.065186,1175.375244 442.000000,1172.910889 442.000000,1170.226807 C471.740845,1170.226807 501.142517,1170.226807 530.015198,1170.226807 C530.015198,1185.037476 530.239502,1199.734863 529.925781,1214.420776 C529.754761,1222.429321 528.902893,1230.445923 527.949280,1238.409912 C526.250122,1252.600342 521.723328,1265.604980 512.006592,1276.588623 C498.646820,1291.690186 481.994080,1301.344604 462.783600,1306.496948 C455.155853,1308.542725 447.101562,1309.365234 439.185608,1309.871216 C430.385529,1310.433716 421.497009,1310.427856 412.690521,1309.917725 C388.637909,1308.524658 366.273590,1302.478882 347.496277,1286.148071 C335.322510,1275.560425 328.716003,1262.068481 326.175568,1246.691650 C323.997437,1233.508179 322.981659,1220.097778 322.102661,1206.744873 C321.287323,1194.359375 321.333282,1181.917236 321.000000,1169.000000 z"/>
<path class="fg" d="M872.000000,1105.000000 C872.000000,1145.165039 871.912170,1184.830566 872.089722,1224.494873 C872.118042,1230.815674 873.035950,1237.182007 874.088013,1243.435547 C875.230164,1250.224731 881.161743,1254.650269 888.257690,1253.919189 C896.717468,1253.047241 899.671143,1249.464355 900.966309,1242.314697 C904.778015,1221.272217 902.329895,1200.009399 902.988037,1178.853394 C903.075012,1176.058594 903.000000,1173.258667 903.000000,1170.232910 C932.731201,1170.232910 962.135498,1170.232910 991.015198,1170.232910 C991.015198,1186.367554 991.495056,1202.414185 990.843323,1218.414795 C990.421570,1228.767700 988.770325,1239.130371 986.913025,1249.351196 C983.848267,1266.216797 973.746155,1278.684937 960.489685,1288.850464 C946.696411,1299.427734 931.010132,1306.076782 913.999207,1308.809448 C897.955933,1311.386841 881.766663,1311.388550 865.501648,1309.171265 C850.973633,1307.190918 837.017334,1303.898804 824.054993,1296.988159 C803.213928,1285.877075 791.133362,1268.488770 786.957947,1245.310669 C784.036499,1229.093140 782.964050,1212.792358 782.923828,1196.325073 C782.833130,1159.239990 782.209595,1122.156494 782.063232,1085.071289 C782.007629,1070.987549 781.529663,1056.755127 783.312195,1042.855591 C785.184448,1028.255981 789.835388,1014.163025 799.286011,1002.143188 C814.976257,982.187500 835.893127,971.452698 860.528809,968.193298 C874.042847,966.405334 887.911011,965.400391 901.471252,966.293518 C922.388733,967.671143 942.318237,973.229675 959.785156,985.906006 C975.085266,997.009827 984.342957,1011.432922 988.125061,1030.030151 C993.956604,1058.704712 991.196472,1087.622559 992.119934,1116.725586 C962.352478,1116.725586 932.947876,1116.725586 903.204407,1116.725586 C903.137695,1115.329712 903.009644,1113.889893 903.008850,1112.449951 C902.996033,1090.617432 903.128418,1068.783691 902.907837,1046.953491 C902.854065,1041.632812 902.200806,1036.179932 900.846863,1031.045166 C899.049011,1024.227295 894.932861,1022.505859 884.766541,1023.000122 C879.875244,1023.237854 875.058350,1026.971436 874.102539,1032.071655 C873.056946,1037.650879 872.168213,1043.347046 872.092651,1049.004028 C871.845764,1067.499756 872.000000,1086.000977 872.000000,1105.000000 z"/>
<path class="fg" d="M248.000000,973.000000 C263.142670,973.000000 277.785309,973.000000 292.713501,973.000000 C292.713501,995.287903 292.713501,1017.358337 292.713501,1039.828491 C273.377289,1039.828491 253.970367,1039.828491 234.283234,1039.828491 C234.283234,1060.294556 234.283234,1080.365112 234.283234,1100.835693 C252.629745,1100.835693 271.036987,1100.835693 289.720459,1100.835693 C289.720459,1122.302002 289.720459,1143.372437 289.720459,1164.842773 C271.363037,1164.842773 252.955795,1164.842773 234.276001,1164.842773 C234.276001,1188.975952 234.276001,1212.712646 234.276001,1236.848755 C255.643723,1236.848755 277.050201,1236.848755 298.726807,1236.848755 C298.726807,1259.314941 298.726807,1281.385132 298.726807,1303.728271 C247.683563,1303.728271 196.616150,1303.728271 145.274139,1303.728271 C145.274139,1193.693237 145.274139,1083.631104 145.274139,973.000000 C179.314392,973.000000 213.407196,973.000000 248.000000,973.000000 z"/>
</svg>
